<svg width="442" height="525" viewBox="0 0 442 525" fill="none" xmlns="http://www.w3.org/2000/svg">
<path d="M100.233 115.885C60.9309 140.589 33.0952 184.966 37.4481 226.795C41.8984 268.527 78.5487 307.798 91.1378 357.298C103.727 406.797 92.3692 466.691 113.395 497.159C134.317 527.73 187.853 529.052 231.473 515.613C275.22 502.271 309.121 474.167 346.808 448.993C384.495 423.912 425.899 401.675 435.636 369.593C445.373 337.608 423.419 295.756 399.553 264.555C375.784 233.229 349.935 212.6 323.234 183.741C296.532 154.881 268.88 117.877 229.675 101.89C190.378 85.8921 139.524 91.095 100.233 115.885Z" fill="#F2F2F2"/>
<path d="M208.54 391.315L216.845 243.354" stroke="#FED385" stroke-width="5" stroke-miterlimit="10" stroke-linecap="round"/>
<path d="M208.54 391.315L308.772 258.522" stroke="#FED385" stroke-width="5" stroke-miterlimit="10" stroke-linecap="round"/>
<path d="M208.54 391.315L315.072 159.5" stroke="#FED385" stroke-width="5" stroke-miterlimit="10" stroke-linecap="round"/>
<path d="M380.34 136.83C391.261 106.826 381.148 75.6069 357.75 67.101C334.352 58.5951 306.531 76.0229 295.609 106.027C284.687 136.031 294.801 167.25 318.199 175.756C341.596 184.262 369.418 166.834 380.34 136.83Z" fill="#FD8369"/>
<path d="M268.403 201.836C270.626 169.986 252.294 142.763 227.456 141.031C202.619 139.3 180.682 163.716 178.459 195.567C176.236 227.417 194.568 254.641 219.406 256.372C244.243 258.103 266.18 233.687 268.403 201.836Z" fill="#D37C59"/>
<path d="M386.638 227.51C402.141 195.674 392.919 159.27 366.04 146.198C339.162 133.126 304.805 148.336 289.302 180.172C273.799 212.007 283.021 248.412 309.9 261.484C336.778 274.556 371.135 259.345 386.638 227.51Z" fill="#74D5DE"/>
<path d="M298.891 109.266C303.476 79.1519 286.962 51.6636 262.006 47.8696C237.051 44.0756 213.104 65.4127 208.52 95.5273C203.936 125.642 220.45 153.13 245.405 156.924C270.36 160.718 294.307 139.381 298.891 109.266Z" fill="#74D5DE"/>
<path d="M312.828 188.664C321.41 160.399 311.353 132.326 290.364 125.961C269.376 119.596 245.403 137.35 236.821 165.616C228.238 193.881 238.296 221.954 259.284 228.319C280.273 234.684 304.245 216.93 312.828 188.664Z" fill="#FED385"/>
<path d="M219.32 254.642L224.474 266.742C224.624 267.097 224.678 267.485 224.631 267.868C224.584 268.251 224.437 268.614 224.205 268.923C223.973 269.231 223.664 269.473 223.31 269.625C222.955 269.776 222.567 269.832 222.183 269.787L209.13 268.178C208.746 268.132 208.381 267.985 208.072 267.753C207.763 267.52 207.521 267.21 207.37 266.855C207.219 266.499 207.164 266.109 207.212 265.726C207.26 265.342 207.408 264.978 207.641 264.67L215.562 254.178C215.796 253.876 216.104 253.639 216.457 253.492C216.809 253.345 217.194 253.292 217.573 253.339C217.952 253.386 218.313 253.531 218.619 253.759C218.925 253.987 219.167 254.292 219.32 254.642Z" fill="#D37C59"/>
<path d="M208.54 391.315L189.639 178.961" stroke="#FED385" stroke-width="5" stroke-miterlimit="10" stroke-linecap="round"/>
<path d="M208.54 391.315L258.942 223.035" stroke="#FED385" stroke-width="5" stroke-miterlimit="10" stroke-linecap="round"/>
<path d="M260.81 223.189L263.811 235.993C263.898 236.369 263.885 236.761 263.772 237.13C263.659 237.499 263.452 237.832 263.17 238.096C262.888 238.359 262.541 238.544 262.165 238.631C261.789 238.718 261.397 238.704 261.027 238.592L248.427 234.774C248.057 234.662 247.723 234.455 247.459 234.173C247.195 233.892 247.01 233.545 246.922 233.169C246.834 232.793 246.847 232.401 246.96 232.032C247.072 231.662 247.28 231.329 247.562 231.065L257.161 222.085C257.443 221.82 257.789 221.634 258.166 221.546C258.542 221.458 258.935 221.471 259.305 221.583C259.675 221.695 260.009 221.902 260.273 222.184C260.537 222.466 260.722 222.813 260.81 223.189Z" fill="#FED385"/>
<path d="M312.157 256.296L311.24 269.403C311.215 269.79 311.088 270.164 310.871 270.486C310.655 270.808 310.357 271.067 310.008 271.237C309.659 271.407 309.271 271.481 308.884 271.452C308.497 271.424 308.124 271.294 307.804 271.075L296.921 263.725C296.601 263.509 296.343 263.213 296.173 262.866C296.004 262.518 295.929 262.132 295.956 261.747C295.984 261.362 296.112 260.99 296.329 260.67C296.546 260.35 296.843 260.093 297.191 259.925L309.007 254.166C309.353 253.999 309.738 253.926 310.122 253.954C310.506 253.982 310.876 254.11 311.195 254.325C311.513 254.541 311.77 254.836 311.939 255.182C312.108 255.528 312.183 255.912 312.157 256.296Z" fill="#74D5DE"/>
<path d="M190.2 185.344C219.996 182.948 241.847 152.397 239.006 117.106C236.164 81.8149 209.706 55.148 179.91 57.5438C150.114 59.9395 128.263 90.4908 131.104 125.782C133.946 161.073 160.403 187.74 190.2 185.344Z" fill="#FD8369"/>
<path d="M191.22 180.352L198.666 191.17C198.882 191.488 199.011 191.857 199.041 192.24C199.07 192.623 198.999 193.007 198.834 193.355C198.669 193.702 198.416 194 198.1 194.219C197.784 194.438 197.417 194.571 197.034 194.604L183.946 195.686C183.561 195.716 183.176 195.644 182.827 195.478C182.479 195.312 182.18 195.058 181.961 194.74C181.742 194.423 181.61 194.053 181.578 193.669C181.547 193.285 181.617 192.899 181.781 192.55L187.423 180.678C187.586 180.329 187.839 180.028 188.156 179.807C188.473 179.586 188.842 179.452 189.227 179.419C189.612 179.386 189.999 179.455 190.349 179.618C190.699 179.782 190.999 180.035 191.22 180.352Z" fill="#FD8369"/>
<path d="M155.697 496.747L281.123 521.657L303.451 409.377L178.026 384.467L155.697 496.747Z" fill="#DE8E68"/>
<path d="M183.087 423.397L308.508 448.307L303.474 409.373L178.047 384.463L183.087 423.397Z" fill="#D37C59"/>
<path d="M83.8985 482.477L155.709 496.739L178.037 384.458L106.227 370.196L83.8985 482.477Z" fill="#D37C59"/>
<path d="M158.848 418.577L87.1743 404.342L106.379 370.222L178.047 384.463L158.848 418.577Z" fill="#DE8E68"/>
<path d="M203.856 506.31L232.967 512.092L239.553 478.969L210.443 473.187L203.856 506.31Z" fill="#D37C59"/>
<path d="M172.42 453.294L216.26 462.001L221.069 437.821L177.229 429.114L172.42 453.294Z" fill="#FED385"/>
<path d="M203.083 455.709L212.993 457.677L216.486 440.111L206.577 438.143L203.083 455.709Z" fill="#FD8369"/>
<path d="M179.03 436.249L203.793 441.167L204.458 437.821L179.695 432.903L179.03 436.249Z" fill="#FD8369"/>
<path d="M177.885 441.974L202.648 446.892L203.313 443.546L178.55 438.628L177.885 441.974Z" fill="#FD8369"/>
</svg>
